<?xml version="1.0" encoding="UTF-8" standalone="no"?>
<svg
   xmlns:dc="http://purl.org/dc/elements/1.1/"
   xmlns:cc="http://creativecommons.org/ns#"
   xmlns:rdf="http://www.w3.org/1999/02/22-rdf-syntax-ns#"
   xmlns:svg="http://www.w3.org/2000/svg"
   xmlns="http://www.w3.org/2000/svg"
   xmlns:sodipodi="http://sodipodi.sourceforge.net/DTD/sodipodi-0.dtd"
   xmlns:inkscape="http://www.inkscape.org/namespaces/inkscape"
   viewBox="0 0 600 600"
   id="svg4243"
   version="1.1"
   inkscape:version="0.91 r13725"
   sodipodi:docname="M-mono.svg"
   inkscape:export-filename="/Users/michel/Dropbox/Graphics/micheldebree.nl/logo v1/M-mono.png"
   inkscape:export-xdpi="90"
   inkscape:export-ydpi="90"
   width="600"
   height="600">
  <metadata
     id="metadata4259">
    <rdf:RDF>
      <cc:Work
         rdf:about="">
        <dc:format>image/svg+xml</dc:format>
        <dc:type
           rdf:resource="http://purl.org/dc/dcmitype/StillImage" />
        <dc:title></dc:title>
      </cc:Work>
    </rdf:RDF>
  </metadata>
  <defs
     id="defs4257" />
  <sodipodi:namedview
     pagecolor="#ffffff"
     bordercolor="#666666"
     borderopacity="1"
     objecttolerance="10"
     gridtolerance="10"
     guidetolerance="10"
     inkscape:pageopacity="0"
     inkscape:pageshadow="2"
     inkscape:window-width="1224"
     inkscape:window-height="803"
     id="namedview4255"
     showgrid="false"
     inkscape:zoom="0.72447432"
     inkscape:cx="300.11729"
     inkscape:cy="225.36291"
     inkscape:window-x="535"
     inkscape:window-y="47"
     inkscape:window-maximized="0"
     inkscape:current-layer="g4701" />
  <g
     id="g4701"
     transform="translate(0,30)">
    <circle
       style="opacity:0.99;fill:#d0d0d0;fill-opacity:0.50196081;stroke:none;stroke-width:3;stroke-miterlimit:4;stroke-dasharray:none;stroke-opacity:1;"
       id="path4880"
       cx="300"
       cy="270"
       r="299" />
    <g
       id="g4920"
       transform="matrix(1.1104249,0,0,1.1104249,-33.127469,-29.814723)">
      <path
         style="fill:#ffffff;fill-opacity:1"
         d="m 203.43249,45 c -34.4775,19.090909 -68.95499,38.181818 -103.432491,57.27273 0,111.81818 0,223.63636 0,335.45454 33.257051,19.09091 66.514111,38.18182 99.771171,57.27273 0,-74.84848 0,-149.69697 0,-224.54545 33.56217,19.0909 67.12433,38.18181 100.6865,57.27272 0,36.66667 0,73.33334 0,110 33.25705,19.09091 66.51411,38.18182 99.77116,57.27273 0,-74.84848 0,-149.69697 0,-224.54545 -33.25705,18.48484 -66.51411,36.9697 -99.77116,55.45454 0,-37.27273 0,-74.54545 0,-111.81818 C 366.97178,176.81818 433.48589,139.54545 500,102.27273 466.74295,83.181818 433.48589,64.090909 400.22883,45 366.97178,63.787879 333.71472,82.575757 300.45767,101.36364 268.11594,82.575757 235.77421,63.787879 203.43249,45 Z"
         id="path4245"
         inkscape:connector-curvature="0" />
      <path
         style="fill:#c00000"
         d="m 500,102.27273 c -66.51411,37.27272 -133.02822,74.54545 -199.54233,111.81818 0,37.27273 0,74.54545 0,111.81818 -33.56217,-18.48484 -67.12433,-36.9697 -100.6865,-55.45454 0,74.84848 0,149.69697 0,224.54545 33.56217,-19.09091 67.12433,-38.18182 100.6865,-57.27273 0,-36.66666 0,-73.33333 0,-110 33.25705,-19.09091 66.51411,-38.18182 99.77116,-57.27272 0,74.84848 0,149.69697 0,224.54545 33.25706,-19.09091 66.51412,-38.18182 99.77117,-57.27273 0,-111.81818 0,-223.63636 0,-335.45454 z"
         id="path4247"
         inkscape:connector-curvature="0" />
    </g>
  </g>
</svg>
