<?xml version="1.0" encoding="UTF-8" standalone="no"?>
<svg
   xmlns:dc="http://purl.org/dc/elements/1.1/"
   xmlns:cc="http://creativecommons.org/ns#"
   xmlns:rdf="http://www.w3.org/1999/02/22-rdf-syntax-ns#"
   xmlns:svg="http://www.w3.org/2000/svg"
   xmlns="http://www.w3.org/2000/svg"
   xmlns:sodipodi="http://sodipodi.sourceforge.net/DTD/sodipodi-0.dtd"
   xmlns:inkscape="http://www.inkscape.org/namespaces/inkscape"
   viewBox="0 0 600 600"
   id="svg4243"
   version="1.1"
   inkscape:version="0.91 r13725"
   sodipodi:docname="M-mono-var1.svg"
   inkscape:export-filename="/Users/michel/Dropbox/Graphics/micheldebree.nl/logo v1/M-mono.png"
   inkscape:export-xdpi="90"
   inkscape:export-ydpi="90"
   width="600"
   height="600">
  <metadata
     id="metadata4259">
    <rdf:RDF>
      <cc:Work
         rdf:about="">
        <dc:format>image/svg+xml</dc:format>
        <dc:type
           rdf:resource="http://purl.org/dc/dcmitype/StillImage" />
        <dc:title></dc:title>
      </cc:Work>
    </rdf:RDF>
  </metadata>
  <defs
     id="defs4257" />
  <sodipodi:namedview
     pagecolor="#ffffff"
     bordercolor="#666666"
     borderopacity="1"
     objecttolerance="10"
     gridtolerance="10"
     guidetolerance="10"
     inkscape:pageopacity="0"
     inkscape:pageshadow="2"
     inkscape:window-width="1385"
     inkscape:window-height="940"
     id="namedview4255"
     showgrid="false"
     inkscape:zoom="0.5122807"
     inkscape:cx="401.2574"
     inkscape:cy="326.43415"
     inkscape:window-x="242"
     inkscape:window-y="149"
     inkscape:window-maximized="0"
     inkscape:current-layer="g4701" />
  <g
     id="g4701"
     transform="translate(0,30)">
    <circle
       style="opacity:0.99;fill:#c00000;fill-opacity:1;stroke:none;stroke-width:3;stroke-miterlimit:4;stroke-dasharray:none;stroke-opacity:1"
       id="path4880"
       cx="300"
       cy="270"
       r="299" />
    <path
       style="fill:#ffffff;fill-opacity:1"
       d="M 181.52421,-7.42316 C 139.22479,16.115778 96.925348,39.654715 54.625941,63.193653 c 0,137.870887 0,275.741807 0,413.612697 40.802093,23.53895 81.604189,47.07787 122.406299,70.61681 0,-92.28758 0,-184.57515 0,-276.86271 41.17641,23.53893 82.35285,47.07786 123.52924,70.61681 0,45.2097 0,90.4194 0,135.62909 40.8021,23.53895 81.60419,47.07787 122.40626,70.61681 0,-92.28758 0,-184.57515 0,-276.86271 -40.80207,22.79166 -81.60416,45.58334 -122.40626,68.375 0,-45.95698 0,-91.91393 0,-137.87092 81.6042,-45.95695 163.2084,-91.91392 244.81258,-137.870877 C 504.57198,39.654702 463.76988,16.115765 422.96777,-7.42316 382.16568,15.742141 341.36359,38.907443 300.56149,62.072743 260.88239,38.907443 221.20328,15.742141 181.52421,-7.42316 Z"
       id="path4245"
       inkscape:connector-curvature="0" />
  </g>
</svg>
