<?xml version="1.0" encoding="UTF-8" standalone="no"?>
<!-- Created with Inkscape (http://www.inkscape.org/) -->

<svg
   width="210mm"
   height="297mm"
   viewBox="0 0 210 297"
   version="1.1"
   id="svg1"
   xml:space="preserve"
   inkscape:version="1.3 (0e150ed, 2023-07-21)"
   sodipodi:docname="youth.inkscape.svg"
   xmlns:inkscape="http://www.inkscape.org/namespaces/inkscape"
   xmlns:sodipodi="http://sodipodi.sourceforge.net/DTD/sodipodi-0.dtd"
   xmlns="http://www.w3.org/2000/svg"
   xmlns:svg="http://www.w3.org/2000/svg"><sodipodi:namedview
     id="namedview1"
     pagecolor="#ffffff"
     bordercolor="#000000"
     borderopacity="0.25"
     inkscape:showpageshadow="2"
     inkscape:pageopacity="0.0"
     inkscape:pagecheckerboard="0"
     inkscape:deskcolor="#d1d1d1"
     inkscape:document-units="mm"
     showgrid="true"
     inkscape:zoom="3.3638608"
     inkscape:cx="441.01111"
     inkscape:cy="720.00601"
     inkscape:window-width="1680"
     inkscape:window-height="997"
     inkscape:window-x="0"
     inkscape:window-y="25"
     inkscape:window-maximized="0"
     inkscape:current-layer="layer1"
     showguides="true"><inkscape:grid
       id="grid1"
       units="px"
       originx="0"
       originy="0"
       spacingx="0.26458333"
       spacingy="0.26458334"
       empcolor="#0099e5"
       empopacity="0.30196078"
       color="#0099e5"
       opacity="0.14901961"
       empspacing="5"
       dotted="false"
       gridanglex="30"
       gridanglez="30"
       visible="true" /><sodipodi:guide
       position="93.441736,128.83634"
       orientation="0,-1"
       id="guide2"
       inkscape:locked="false" /></sodipodi:namedview><defs
     id="defs1" /><g
     inkscape:label="Layer 1"
     inkscape:groupmode="layer"
     id="layer1"><rect
       style="fill:#fffffd;fill-opacity:1;stroke-width:0.877523"
       id="rect2"
       width="43.656242"
       height="11.906248"
       x="87.3125"
       y="187.85417" /><path
       id="path2"
       style="fill:#3b4b59;fill-opacity:1;stroke-width:0.264583"
       d="M 83.34375 168.01042 L 83.34375 203.72917 L 83.34375 219.60417 L 134.9375 219.60417 L 134.9375 203.72917 L 134.9375 168.01042 L 83.34375 168.01042 z M 87.3125 187.85417 L 91.28125 187.85417 L 91.28125 191.82292 L 95.25 191.82292 L 95.25 187.85417 L 107.15625 187.85417 L 107.15625 195.79167 L 111.125 195.79167 L 111.125 187.85417 L 115.09375 187.85417 L 115.09375 191.82292 L 119.0625 191.82292 L 119.0625 187.85417 L 123.03125 187.85417 L 123.03125 191.82292 L 130.96875 191.82292 L 130.96875 199.76042 L 127 199.76042 L 127 195.79167 L 123.03125 195.79167 L 123.03125 199.76042 L 119.0625 199.76042 L 119.0625 195.79167 L 115.09375 195.79167 L 115.09375 199.76042 L 95.25 199.76042 L 95.25 195.79167 L 87.3125 195.79167 L 87.3125 187.85417 z M 99.21875 191.82292 L 99.21875 195.79167 L 103.1875 195.79167 L 103.1875 191.82292 L 99.21875 191.82292 z "
       inkscape:export-filename="path2.png"
       inkscape:export-xdpi="196.92308"
       inkscape:export-ydpi="196.92308" /></g></svg>
